<?xml version="1.0" encoding="UTF-8"?>
<svg width="82px" height="99px" viewBox="0 0 82 99" version="1.1" xmlns="http://www.w3.org/2000/svg" xmlns:xlink="http://www.w3.org/1999/xlink">
    <title>body</title>
    <g id="Page-1" stroke="none" stroke-width="1" fill="none" fill-rule="evenodd">
        <g id="Artboard" transform="translate(-415, -241)">
            <g id="body" transform="translate(415.176, 241.9273)">
                <path d="M56.501953,7.03801829 C57.8832079,11.0835962 59.6732878,17.4496803 61.8764052,26.1348883 C63.8753078,34.0150335 65.6969476,41.7703424 67.3406469,49.3978456 L67.8828309,51.9388538 C67.9540177,52.2765285 67.9053998,52.6166998 67.7612762,52.9099298 C67.6171525,53.2031597 67.3775232,53.4494482 67.0671819,53.5991186 C59.1872822,57.3958542 50.8589603,59.1299204 42.0826448,58.8026437 C33.2358845,58.47274 25.0543486,56.0899279 17.5366873,51.6502354 C17.2666522,51.4913662 17.060621,51.2566963 16.9360293,50.9846992 C16.8112047,50.7121935 16.7680988,50.4022499 16.8238424,50.0948092 C18.3425939,41.7632967 19.7227614,35.1410449 20.9665048,30.2285216 C22.2637385,25.1047231 24.521025,17.4604985 27.7367761,7.29541258 L41.837875,8.02756549 Z" id="Rectangle" stroke="#000000" stroke-width="3" fill="#FFFFFF" transform="translate(42.4035, 32.9031) rotate(13) translate(-42.4035, -32.9031)"></path>
                <path d="M6.85760461,13.4925212 L31.0404943,13.2884852 L31.0404943,13.2884852 L29.856291,17.1618397 L6.86530951,17.1378756 C5.86249701,17.1368303 5.0495187,16.3247164 5.04740667,15.3219056 C5.04529267,14.3181649 5.85389745,13.5009897 6.85760461,13.4925212 Z" id="Rectangle" fill="#000000" transform="translate(18.042, 15.2252) rotate(-17) translate(-18.042, -15.2252)"></path>
                <path d="M-4.78128,67.0695787 L32.4046605,66.86044 L32.4046605,66.86044 L32.4676722,71.092511 L-4.76987593,70.7258034 C-5.77551467,70.7159001 -6.58643034,69.8995428 -6.58960784,68.8938604 C-6.59277563,67.8912497 -5.78387979,67.0752175 -4.78128,67.0695787 Z" id="Rectangle" fill="#000000" transform="translate(12.9362, 68.9765) rotate(-55) translate(-12.9362, -68.9765)"></path>
                <path d="M32.7594998,76.6007182 L68.8841454,76.3918649 L68.8841454,76.3918649 L68.9454424,80.6239359 L32.7705885,80.2577279 C31.7648979,80.2475471 30.9541093,79.4310227 30.9510181,78.4252852 C30.9479363,77.4226034 31.7568299,76.6065151 32.7594998,76.6007182 Z" id="Rectangle" fill="#000000" transform="translate(49.9454, 78.5079) rotate(-91) translate(-49.9454, -78.5079)"></path>
                <path d="M59.8576046,24.4925212 L84.0404943,24.2884852 L84.0404943,24.2884852 L82.856291,28.1618397 L59.8653095,28.1378756 C58.862497,28.1368303 58.0495187,27.3247164 58.0474067,26.3219056 C58.0452927,25.3181649 58.8538975,24.5009897 59.8576046,24.4925212 Z" id="Rectangle" fill="#000000" transform="translate(71.042, 26.2252) scale(-1, 1) rotate(-45) translate(-71.042, -26.2252)"></path>
            </g>
        </g>
    </g>
</svg>