<?xml version="1.0" encoding="UTF-8"?>
<svg width="57px" height="56px" viewBox="0 0 57 56" version="1.1" xmlns="http://www.w3.org/2000/svg" xmlns:xlink="http://www.w3.org/1999/xlink">
    <title>head</title>
    <g id="Page-1" stroke="none" stroke-width="1" fill="none" fill-rule="evenodd">
        <g id="Artboard" transform="translate(-440, -194)">
            <g id="head" transform="translate(440, 194)">
                <ellipse id="Oval" stroke="#000000" stroke-width="2.5" fill="#FFFFFF" cx="28.5" cy="28" rx="27.25" ry="26.75"></ellipse>
                <g id="dead_eyes" transform="translate(14.6657, 5.6657)" fill="#000000">
                    <polygon id="Star" transform="translate(9.8343, 9.8343) rotate(23) translate(-9.8343, -9.8343)" points="9.83426986 13.5842699 5.42588047 15.9018973 6.26780793 10.9930836 2.70134599 7.51664241 7.63007517 6.80045614 9.83426986 2.33426986 12.0384646 6.80045614 16.9671937 7.51664241 13.4007318 10.9930836 14.2426593 15.9018973"></polygon>
                    <polygon id="Star" transform="translate(26.1355, 13.8111) rotate(23) translate(-26.1355, -13.8111)" points="26.135532 16.3110977 23.1966057 17.8561827 23.7578907 14.5836402 21.3802494 12.2660127 24.6660689 11.7885552 26.135532 8.81109769 27.6049951 11.7885552 30.8908146 12.2660127 28.5131733 14.5836402 29.0744583 17.8561827"></polygon>
                </g>
                <path d="M39.0888713,27.6480234 C41.868726,27.2314101 43.6872929,26.8462676 44.74832,27.4503791 C45.0840584,27.6415367 45.2938737,27.9699404 45.4423509,28.4357316 C45.6513664,29.091439 45.7322508,29.9760879 45.7322508,31.1456077 C45.7322508,34.9215571 43.7896607,38.3652322 40.6676935,40.865715 C37.5040205,43.3996011 33.1301294,44.9701848 28.2603691,44.9701848 C23.3591344,44.9701848 18.9168919,43.4230414 15.7032431,40.9042356 C12.5738437,38.4514631 10.6103691,35.0712926 10.6103691,31.3201848 C10.6103691,29.451854 10.7332465,28.321326 11.478091,27.8571255 C12.4119329,27.2751383 14.0099654,27.6183721 16.398508,27.951781 C19.2297672,28.3469872 23.0992626,28.8854779 28.2880677,28.722824 C32.8692647,28.5792169 36.4008604,28.0508723 39.0888713,27.6480234 Z" id="Oval" stroke="#000000" stroke-width="1.7" transform="translate(28.1713, 36.0733) rotate(10) translate(-28.1713, -36.0733)"></path>
            </g>
        </g>
    </g>
</svg>