<?xml version="1.0" encoding="UTF-8"?>
<svg width="57px" height="56px" viewBox="0 0 57 56" version="1.1" xmlns="http://www.w3.org/2000/svg" xmlns:xlink="http://www.w3.org/1999/xlink">
    <title>head</title>
    <g id="Page-1" stroke="none" stroke-width="1" fill="none" fill-rule="evenodd">
        <g id="Artboard" transform="translate(-440, -194)">
            <g id="head" transform="translate(440, 194)">
                <ellipse id="Oval" stroke="#000000" stroke-width="2.5" fill="#FFFFFF" cx="28.5" cy="28" rx="27.25" ry="26.75"></ellipse>
                <g id="eyes" transform="translate(19, 10)" fill="#000000">
                    <circle id="Oval" cx="5.5" cy="5.5" r="5.5"></circle>
                    <circle id="Oval" cx="21.5" cy="9.5" r="3.5"></circle>
                </g>
                <path d="M39.0888713,27.6480234 C41.868726,27.2314101 43.6872929,26.8462676 44.74832,27.4503791 C45.0840584,27.6415367 45.2938737,27.9699404 45.4423509,28.4357316 C45.6513664,29.091439 45.7322508,29.9760879 45.7322508,31.1456077 C45.7322508,34.9215571 43.7896607,38.3652322 40.6676935,40.865715 C37.5040205,43.3996011 33.1301294,44.9701848 28.2603691,44.9701848 C23.3591344,44.9701848 18.9168919,43.4230414 15.7032431,40.9042356 C12.5738437,38.4514631 10.6103691,35.0712926 10.6103691,31.3201848 C10.6103691,29.451854 10.7332465,28.321326 11.478091,27.8571255 C12.4119329,27.2751383 14.0099654,27.6183721 16.398508,27.951781 C19.2297672,28.3469872 23.0992626,28.8854779 28.2880677,28.722824 C32.8692647,28.5792169 36.4008604,28.0508723 39.0888713,27.6480234 Z" id="Oval" stroke="#000000" stroke-width="1.7" transform="translate(28.1713, 36.0733) rotate(10) translate(-28.1713, -36.0733)"></path>
            </g>
        </g>
    </g>
</svg>