<?xml version="1.0" encoding="UTF-8"?>
<svg width="197px" height="77px" viewBox="0 0 197 77" version="1.1" xmlns="http://www.w3.org/2000/svg" xmlns:xlink="http://www.w3.org/1999/xlink">
    <title>horizontal_wood</title>
    <g id="Page-1" stroke="none" stroke-width="1" fill="none" fill-rule="evenodd">
        <g id="Artboard" transform="translate(-329, -152)" fill="#FFFFFF" stroke="#000000" stroke-width="3">
            <g id="horizontal_wood" transform="translate(329, 152)">
                <path d="M34.5,1.5 L34.5,15.5 L3,15.5 C2.58578644,15.5 2.21078644,15.3321068 1.93933983,15.0606602 C1.66789322,14.7892136 1.5,14.4142136 1.5,14 L1.5,3 C1.5,2.58578644 1.66789322,2.21078644 1.93933983,1.93933983 C2.21078644,1.66789322 2.58578644,1.5 3,1.5 L34.5,1.5 Z" id="Rectangle"></path>
                <path d="M194,1.5 C194.414214,1.5 194.789214,1.66789322 195.06066,1.93933983 C195.332107,2.21078644 195.5,2.58578644 195.5,3 L195.5,14 C195.5,14.4142136 195.332107,14.7892136 195.06066,15.0606602 C194.789214,15.3321068 194.414214,15.5 194,15.5 L52.5,15.5 L52.5,1.5 Z" id="Rectangle"></path>
                <path d="M44.078866,38.3480332 L107.247208,38.557811 L113.49735,45.4992973 L37.6052323,44.1769192 L44.078866,38.3480332 Z" id="Rectangle" transform="translate(75.3459, 41.9526) rotate(-48) translate(-75.3459, -41.9526)"></path>
            </g>
        </g>
    </g>
</svg>