<?xml version="1.0" encoding="UTF-8"?>
<svg width="40px" height="26px" viewBox="0 0 40 26" version="1.1" xmlns="http://www.w3.org/2000/svg" xmlns:xlink="http://www.w3.org/1999/xlink">
    <title>neck_rope</title>
    <g id="Page-1" stroke="none" stroke-width="1" fill="none" fill-rule="evenodd">
        <g id="Artboard" transform="translate(-443, -236)" stroke="#000000">
            <g id="neck_rope" transform="translate(443.2221, 236.2429)">
                <path d="M35.2306454,5.79047379 C35.4362271,5.72815146 35.6201672,5.7167587 35.782246,5.76917594 C35.97581,5.83177573 36.1285609,5.9725592 36.2610114,6.13799037 C36.7935346,6.80311377 37.0093549,7.87441433 37.0093549,8.66645202 C37.0093549,9.722793 36.4376309,11.5571592 35.3235736,12.8050939 C32.084606,16.4332915 25.121947,19.3808208 17.8617619,19.3808208 C11.9566944,19.3808208 7.18036084,18.0689095 4.59402323,15.5615272 C2.95240519,13.9700243 2.4480132,11.5832704 2.4480132,10.0030928 C2.4480132,9.69012365 2.59332768,9.36848295 2.77613612,9.09475672 C2.96216848,8.81620321 3.19325063,8.56154447 3.4309115,8.47720545 C4.0966237,8.24096332 5.01293712,8.83103239 6.16124276,9.35043613 C6.90954671,9.68891037 7.74204177,10.0646371 8.66064745,10.4011951 C11.5374013,11.4551777 15.252358,12.1452542 19.4351527,12.1452542 C23.4564602,12.1452542 27.7596395,10.6969195 30.9097417,8.86348003 C31.8670618,8.30629539 32.6620918,7.65030192 33.37396,7.0584429 C34.0505053,6.49595194 34.6209878,5.97529221 35.2306454,5.79047379 Z" id="Oval" stroke-width="2" fill="#FFFFFF" transform="translate(19.7287, 12.5583) rotate(16) translate(-19.7287, -12.5583)"></path>
                <path d="M8.56849298,7.67792549 C8.24643399,8.90134823 8.08540449,10.0206427 8.08540449,11.0358088 C8.08540449,12.0509749 8.14957231,13.1247367 8.27790796,14.2570942" id="Line-11" stroke-linecap="square"></path>
                <path d="M16.277908,12.2570942 C16.0424574,13.0979133 15.9247322,14.0979133 15.9247322,15.2570942 C15.9247322,16.416275 16.0424574,17.416275 16.277908,18.2570942" id="Line-12" stroke-linecap="square"></path>
                <path d="M23.277908,12.7555233 C23.0090011,13.9252951 22.8745477,15.1755569 22.8745477,16.5063087 C22.8745477,17.8370605 23.0090011,18.9024385 23.277908,19.7024426" id="Line-13" stroke-linecap="square"></path>
                <path d="M31.277908,12.2570942 C31.0952781,13.1613151 31.0952781,14.1613151 31.277908,15.2570942 C31.4605378,16.3528733 31.7938711,17.3528733 32.277908,18.2570942" id="Line-14" stroke-linecap="square"></path>
            </g>
        </g>
    </g>
</svg>