<?xml version="1.0" encoding="UTF-8"?>
<svg width="17px" height="50px" viewBox="0 0 17 50" version="1.1" xmlns="http://www.w3.org/2000/svg" xmlns:xlink="http://www.w3.org/1999/xlink">
    <title>rope</title>
    <g id="Page-1" stroke="none" stroke-width="1" fill="none" fill-rule="evenodd">
        <g id="Artboard" transform="translate(-467, -149)" stroke="#000000">
            <g id="rope" transform="translate(467.5513, 149.8754)">
                <g id="head_rope" transform="translate(0, 36.1343)">
                    <path d="M9.40477058,2.61599607 C10.009219,2.47283793 10.5243924,2.26901778 11.0758781,2.54966533 C11.7119144,2.87334014 12.4547054,3.38648609 12.968082,4.20138098 C13.3449426,4.79958071 13.5907424,5.5604707 13.5907424,6.51773832 C13.5907424,6.9410849 13.4610969,7.31876196 13.2304243,7.65008936 C12.9420781,8.06425639 12.5093727,8.40639781 11.9856357,8.69292108 C10.6684804,9.41350329 8.8070531,9.76704355 6.82341953,9.76704355 C5.08872369,9.76704355 3.80704248,9.47907405 2.96626497,8.85761349 C2.19427508,8.28699728 1.87522175,7.42625319 1.87522175,6.37043411 C1.87522175,5.6537655 2.04580636,5.01515349 2.40131695,4.45898237 C2.74273904,3.9248517 3.24679562,3.47016341 3.89902819,3.08024179 C4.81039732,3.03856704 5.89745636,3.0179128 7.16019418,3.0179128 C8.42755494,2.84686752 8.93763745,2.72663232 9.40477058,2.61599607 Z" id="Oval" stroke-width="2" fill="#FFFFFF" transform="translate(7.733, 6.095) rotate(13) translate(-7.733, -6.095)"></path>
                    <path d="M3.94865893,8.49032293 C4.68217226,7.68063524 5.38474471,6.77206772 6.05637628,5.76462037 C6.72800784,4.75717303 7.13081112,3.61871937 7.2647861,2.3492594" id="Line-9" stroke-linecap="square"></path>
                    <path d="M7.94865893,9.49032293 C8.9642573,8.44927481 9.68838465,7.56820379 10.121041,6.84710988 C10.5536973,6.12601596 10.82957,5.34042032 10.9486589,4.49032293" id="Line-10" stroke-linecap="square"></path>
                </g>
                <g id="vertical_rope" transform="translate(4.4487, 17.1246)">
                    <rect id="Rectangle" stroke-width="1.5" fill="#FFFFFF" x="0.75" y="0.75" width="5.5" height="20.5" rx="1"></rect>
                    <path d="M1,15.3923407 C1.854692,15.5358864 2.68802534,15.6076593 3.5,15.6076593 C4.31197466,15.6076593 5.145308,15.5358864 6,15.3923407" id="Line-4" stroke-linecap="square"></path>
                    <path d="M1,11.3923407 C1.854692,11.5358864 2.68802534,11.6076593 3.5,11.6076593 C4.31197466,11.6076593 5.145308,11.5358864 6,11.3923407" id="Line-4" stroke-linecap="square"></path>
                    <path d="M1,7.3923407 C1.854692,7.53588643 2.68802534,7.6076593 3.5,7.6076593 C4.31197466,7.6076593 5.145308,7.53588643 6,7.3923407" id="Line-4" stroke-linecap="square"></path>
                </g>
                <g transform="translate(2.5971, 0)">
                    <path d="M2.55471201,1.16062166 C3.64359151,0.913936021 4.60533947,0.956054624 5.44045444,1.25760753 C6.32989921,1.57877847 7.06615872,2.18977242 7.66830906,2.99844802 C9.16908935,5.01396531 9.85159812,8.18957959 9.85159812,11.6246177 C9.85159812,15.0387717 9.46581506,17.8540463 8.3522425,19.5631323 C7.9421463,20.1925387 7.4283273,20.6535327 6.77279149,20.8839124 C6.11221349,21.1160642 5.32687196,21.1162349 4.40526832,20.8983114 C3.52579282,20.6903496 2.93799257,20.546599 2.75495182,20.1622368 C2.51595552,19.6603751 2.89285091,18.9832841 3.18124778,18.0970336 C3.6855872,16.5471864 4.35438443,14.4683545 4.35438443,11.6246177 C4.35438443,8.42367253 3.00890449,5.9536272 1.96176926,4.07723694 C1.44692777,3.15467841 0.843665824,2.41973712 1.00839466,1.84041568 C1.55120957,1.43331905 1.97900256,1.29104864 2.55471201,1.16062166 Z" id="Oval" stroke-width="2" fill="#FFFFFF"></path>
                    <path d="M3.35159812,5.62461775 C4.42499022,5.38493524 5.25832355,5.14643907 5.85159812,4.90912924 C6.44487269,4.67181941 7.27820603,4.24364891 8.35159812,3.62461775" id="Line-8" stroke-width="1.2" stroke-linecap="square"></path>
                    <path d="M3.35159812,16.6246177 C4.48866356,16.8071739 5.42324093,16.898452 6.15533022,16.898452 C6.88741952,16.898452 7.61950882,16.8071739 8.35159812,16.6246177" id="Line-7" stroke-width="1.2" stroke-linecap="square"></path>
                    <path d="M4.35159812,13.6246177 C5.4827936,13.6192733 6.43721817,13.5388357 7.21487184,13.383305 C7.99252551,13.2277742 8.7047676,12.9748785 9.35159812,12.6246177" id="Line-6" stroke-width="1.2" stroke-linecap="square"></path>
                    <path d="M4.35159812,9.62461775 C5.42284442,9.47476503 6.35467838,9.24135434 7.14710001,8.92438569 C7.93952163,8.60741704 8.67435434,8.17416106 9.35159812,7.62461775" id="Line-5" stroke-width="1.2" stroke-linecap="square"></path>
                </g>
            </g>
        </g>
    </g>
</svg>