<?xml version="1.0" encoding="UTF-8"?>
<svg width="152px" height="222px" viewBox="0 0 152 222" version="1.1" xmlns="http://www.w3.org/2000/svg" xmlns:xlink="http://www.w3.org/1999/xlink">
    <title>vertical_wood</title>
    <g id="Page-1" stroke="none" stroke-width="1" fill="none" fill-rule="evenodd">
        <g id="Artboard" transform="translate(-303, -144)">
            <g id="vertical_wood" transform="translate(303, 145.5)">
                <rect id="Rectangle" fill="#FFFFFF" x="61" y="2" width="16" height="202"></rect>
                <path d="M70.3774056,44.583847 C69.9417866,41.8797299 68.8406218,38.2884456 68.8615465,34.9303172 C68.8906985,30.2518263 70.1767584,26.0211222 70.5223673,25.6496437 C70.7287146,25.4278508 70.0509329,26.6815233 70.0902747,29.7607305 C70.1101539,31.3166417 69.8899411,32.3629301 69.8474763,35.0339426 C69.8632699,37.9782935 70.7710693,41.7589664 70.3774056,44.583847 Z" id="Path" fill="#000000" transform="translate(69.7114, 35.1043) rotate(-6) translate(-69.7114, -35.1043)"></path>
                <path d="M69.5727978,176.78908 C68.4862319,170.458283 71.4418212,168.465042 70.5153557,176.470135 C70.6697044,182.003637 68.8381404,185.871185 69.5727978,176.78908 Z" id="Path" fill="#000000"></path>
                <path d="M66.2262586,198.055301 C67.5233241,189.100224 69.1710058,159.287503 69.1526982,183.056743 C69.0634531,188.215484 68.458743,193.56439 66.2262586,198.055301 Z" id="Path" fill="#000000" transform="translate(67.6896, 186.0553) rotate(179) translate(-67.6896, -186.0553)"></path>
                <line x1="60.5" y1="203" x2="60.5" y2="2" id="Line" stroke="#000000" stroke-width="3" stroke-linecap="square"></line>
                <line x1="60.5" y1="2" x2="76.5" y2="1" id="Line-2" stroke="#000000" stroke-width="3" stroke-linecap="square"></line>
                <line x1="77.2876443" y1="202.502463" x2="77.5" y2="-5.19419577e-15" id="Line-3" stroke="#000000" stroke-width="3" stroke-linecap="square"></line>
                <path d="M71.1938174,173.5 C71.2223274,170.219877 69.1147978,161.749095 71.2790151,161.5 C72.2014111,165.39721 72.9927599,169.317539 71.1938174,173.5 Z" id="Path" fill="#000000"></path>
                <rect id="Rectangle" stroke="#000000" stroke-width="3" fill="#FFFFFF" x="34.5" y="205" width="90" height="14" rx="3"></rect>
                <rect id="Rectangle" fill="#000000" x="0" y="217.5" width="152" height="3" rx="1.5"></rect>
                <path d="M67.5010302,33.6885227 C68.5277303,30.4715547 70.0494093,28.2113341 70.6814752,23.7178985 C72.0862272,13.7313409 72.2291356,3.5191425 72.2190345,19.9123057 C72.1476384,25.0710466 69.2870177,29.1976121 67.5010302,33.6885227 Z" id="Path" fill="#000000" transform="translate(69.8603, 22.4828) rotate(-22) translate(-69.8603, -22.4828)"></path>
            </g>
        </g>
    </g>
</svg>